<svg width="26" height="36" viewBox="0 0 26 36" fill="none" xmlns="http://www.w3.org/2000/svg">
<path fill-rule="evenodd" clip-rule="evenodd" d="M21 1.5381H5C2.95655 1.5381 1.3 3.19464 1.3 5.2381V30.2381C1.3 32.2816 2.95655 33.9381 5 33.9381H21C23.0435 33.9381 24.7 32.2816 24.7 30.2381V5.2381C24.7 3.19464 23.0435 1.5381 21 1.5381ZM5 0.238098C2.23858 0.238098 0 2.47667 0 5.2381V30.2381C0 32.9995 2.23858 35.2381 5 35.2381H21C23.7614 35.2381 26 32.9995 26 30.2381V5.2381C26 2.47667 23.7614 0.238098 21 0.238098H5ZM20 8.2381C20 9.34267 19.1046 10.2381 18 10.2381C16.8954 10.2381 16 9.34267 16 8.2381C16 7.13353 16.8954 6.2381 18 6.2381C19.1046 6.2381 20 7.13353 20 8.2381ZM7.48047 19.1912V20.7928C7.48047 21.0975 7.31641 21.2772 7.03906 21.2772C6.75781 21.2772 6.59375 21.0975 6.59375 20.7928V16.617C6.59375 16.1209 6.8125 15.9061 7.32031 15.9061H8.65234C9.75 15.9061 10.4336 16.5272 10.4336 17.5193C10.4336 18.2029 10.0742 18.7537 9.47656 18.9881L10.3047 20.5428C10.3555 20.6326 10.3828 20.7537 10.3828 20.8514C10.3828 21.0897 10.1953 21.2576 9.94922 21.2576C9.71875 21.2576 9.59375 21.1561 9.44531 20.8631L8.59766 19.1912H7.48047ZM7.48047 16.6522V18.492H8.51562C9.17578 18.492 9.54297 18.1717 9.54297 17.5818C9.54297 16.992 9.16797 16.6522 8.53516 16.6522H7.48047ZM12.1133 21.2381C11.6523 21.2381 11.4414 21.0428 11.4414 20.6053V16.5389C11.4414 16.1053 11.6523 15.9061 12.1133 15.9061H14.4297C14.6719 15.9061 14.832 16.0545 14.832 16.2811C14.832 16.5076 14.6719 16.6522 14.4297 16.6522H12.3242V18.1717H14.3086C14.5391 18.1717 14.6914 18.3123 14.6914 18.5311C14.6914 18.7498 14.5391 18.8865 14.3086 18.8865H12.3242V20.492H14.4219C14.6719 20.492 14.832 20.6365 14.832 20.867C14.832 21.0936 14.6719 21.2381 14.4219 21.2381H12.1133ZM17.7539 21.3514C16.375 21.3514 15.5938 20.4725 15.5938 18.9451V18.1834C15.5938 16.6873 16.3828 15.8006 17.7539 15.8006C18.418 15.8006 18.9609 16.0037 19.3398 16.3865C19.6016 16.6483 19.7656 16.9803 19.7656 17.2147C19.7656 17.4451 19.6133 17.5897 19.3906 17.5897C19.2188 17.5897 19.1055 17.5233 18.9648 17.3162C18.6562 16.8084 18.2969 16.574 17.7969 16.574C16.9531 16.574 16.4766 17.1678 16.4766 18.2108V18.9217C16.4766 19.9881 16.9492 20.5779 17.7969 20.5779C18.3047 20.5779 18.6914 20.3475 18.9805 19.8514C19.1211 19.6483 19.2227 19.574 19.3867 19.574C19.6211 19.574 19.7656 19.7225 19.7656 19.949C19.7656 20.2108 19.582 20.5584 19.2891 20.8201C18.918 21.1639 18.3984 21.3514 17.7539 21.3514Z" fill="#E4F0F6"/>
</svg>
