<svg width="32" height="39" viewBox="0 0 32 39" fill="none" xmlns="http://www.w3.org/2000/svg">
<mask id="path-1-inside-1" fill="white">
<path fill-rule="evenodd" clip-rule="evenodd" d="M11.4297 10.5688H5.68754C4.75737 10.5688 4.14946 10.0342 4.14946 9.20654C4.14946 8.78906 4.27397 8.45947 4.55961 8.08594L8.85893 2.53418V2.47559H5.41655C4.59624 2.47559 4.04692 2.02881 4.04692 1.23779C4.04692 0.446777 4.58159 0 5.41655 0H10.939C11.8838 0 12.4771 0.549316 12.4771 1.43555C12.4771 1.91162 12.25 2.23389 12.0376 2.51221L7.78227 8.03467V8.09326H11.4297C12.2647 8.09326 12.7994 8.54004 12.7994 9.33105C12.7994 10.1221 12.25 10.5688 11.4297 10.5688ZM22.2994 17.3359H29.9556C31.0494 17.3359 31.7818 16.7402 31.7818 15.6855C31.7818 14.6309 31.0689 14.0352 29.9556 14.0352H25.0923V13.957L30.7662 6.59375C31.0494 6.22266 31.3521 5.79297 31.3521 5.1582C31.3521 3.97656 30.5611 3.24414 29.3013 3.24414H21.938C20.8247 3.24414 20.1119 3.83984 20.1119 4.89453C20.1119 5.94922 20.8443 6.54492 21.938 6.54492H26.5279V6.62305L20.7954 14.0254C20.4146 14.5234 20.2486 14.9629 20.2486 15.5195C20.2486 16.623 21.0591 17.3359 22.2994 17.3359ZM3.39384 38.822H14.8782C16.5188 38.822 17.6175 37.9285 17.6175 36.3464C17.6175 34.7644 16.5481 33.8708 14.8782 33.8708H7.5833V33.7537L16.094 22.7087C16.5188 22.1521 16.9729 21.5076 16.9729 20.5554C16.9729 18.783 15.7864 17.6843 13.8968 17.6843H2.85185C1.18193 17.6843 0.112595 18.5779 0.112595 20.1599C0.112595 21.7419 1.21123 22.6355 2.85185 22.6355H9.73662V22.7527L1.13799 33.8562C0.566696 34.6033 0.317673 35.2624 0.317673 36.0974C0.317673 37.7527 1.53349 38.822 3.39384 38.822Z"/>
</mask>
<path d="M4.55961 8.08594L3.76896 7.47365L3.76526 7.47849L4.55961 8.08594ZM8.85893 2.53418L9.64957 3.14646C9.78529 2.97121 9.85893 2.75583 9.85893 2.53418H8.85893ZM8.85893 2.47559H9.85893C9.85893 1.9233 9.41122 1.47559 8.85893 1.47559V2.47559ZM12.0376 2.51221L12.8298 3.12258L12.8326 3.11888L12.0376 2.51221ZM7.78227 8.03467L6.99015 7.4243C6.85537 7.59922 6.78227 7.81384 6.78227 8.03467H7.78227ZM7.78227 8.09326H6.78227C6.78227 8.64555 7.22999 9.09326 7.78227 9.09326V8.09326ZM25.0923 14.0352H24.0923C24.0923 14.5874 24.54 15.0352 25.0923 15.0352V14.0352ZM25.0923 13.957L24.3002 13.3467C24.1654 13.5216 24.0923 13.7362 24.0923 13.957H25.0923ZM30.7662 6.59375L31.5583 7.20413L31.5611 7.20042L30.7662 6.59375ZM26.5279 6.54492H27.5279C27.5279 5.99264 27.0802 5.54492 26.5279 5.54492V6.54492ZM26.5279 6.62305L27.3185 7.23532C27.4542 7.06007 27.5279 6.8447 27.5279 6.62305H26.5279ZM20.7954 14.0254L20.0048 13.4131L20.0011 13.4179L20.7954 14.0254ZM7.5833 33.8708H6.5833C6.5833 34.4231 7.03101 34.8708 7.5833 34.8708V33.8708ZM7.5833 33.7537L6.79118 33.1433C6.65639 33.3182 6.5833 33.5328 6.5833 33.7537H7.5833ZM16.094 22.7087L16.8862 23.3191L16.889 23.3154L16.094 22.7087ZM9.73662 22.6355H10.7366C10.7366 22.0832 10.2889 21.6355 9.73662 21.6355V22.6355ZM9.73662 22.7527L10.5273 23.365C10.663 23.1897 10.7366 22.9743 10.7366 22.7527H9.73662ZM1.13799 33.8562L0.347328 33.2439L0.343627 33.2487L1.13799 33.8562ZM5.68754 11.5688H11.4297V9.56885H5.68754V11.5688ZM3.14946 9.20654C3.14946 9.88051 3.40535 10.5035 3.90739 10.9473C4.39697 11.3801 5.03537 11.5688 5.68754 11.5688V9.56885C5.40954 9.56885 5.2789 9.49029 5.23198 9.44882C5.19752 9.41835 5.14946 9.36021 5.14946 9.20654H3.14946ZM3.76526 7.47849C3.37006 7.99529 3.14946 8.53327 3.14946 9.20654H5.14946C5.14946 9.04486 5.17788 8.92366 5.35397 8.69339L3.76526 7.47849ZM8.06829 1.9219L3.76897 7.47366L5.35026 8.69822L9.64957 3.14646L8.06829 1.9219ZM7.85893 2.47559V2.53418H9.85893V2.47559H7.85893ZM5.41655 3.47559H8.85893V1.47559H5.41655V3.47559ZM3.04692 1.23779C3.04692 1.8796 3.2789 2.47863 3.76439 2.90483C4.23285 3.31607 4.83297 3.47559 5.41655 3.47559V1.47559C5.17981 1.47559 5.09512 1.41171 5.08384 1.40181C5.07831 1.39695 5.07343 1.39169 5.06754 1.37765C5.06084 1.3617 5.04692 1.31932 5.04692 1.23779H3.04692ZM5.41655 -1C4.82934 -1 4.22584 -0.842313 3.75605 -0.426731C3.26966 0.00353964 3.04692 0.604247 3.04692 1.23779H5.04692C5.04692 1.15282 5.06111 1.10857 5.06793 1.09205C5.07379 1.07785 5.07792 1.07416 5.0812 1.07126C5.08748 1.0657 5.1688 1 5.41655 1V-1ZM10.939 -1H5.41655V1H10.939V-1ZM13.4771 1.43555C13.4771 0.760477 13.2445 0.119893 12.7439 -0.34637C12.2515 -0.804946 11.6022 -1 10.939 -1V1C11.2206 1 11.3404 1.0796 11.3808 1.11724C11.413 1.1472 11.4771 1.22439 11.4771 1.43555H13.4771ZM12.8326 3.11888C13.0591 2.82205 13.4771 2.26821 13.4771 1.43555H11.4771C11.4771 1.55503 11.441 1.64572 11.2427 1.90553L12.8326 3.11888ZM8.57439 8.64504L12.8298 3.12258L11.2455 1.90184L6.99015 7.4243L8.57439 8.64504ZM8.78227 8.09326V8.03467H6.78227V8.09326H8.78227ZM11.4297 7.09326H7.78227V9.09326H11.4297V7.09326ZM13.7994 9.33105C13.7994 8.69751 13.5766 8.0968 13.0902 7.66653C12.6204 7.25095 12.0169 7.09326 11.4297 7.09326V9.09326C11.6775 9.09326 11.7588 9.15896 11.7651 9.16452C11.7684 9.16742 11.7725 9.17111 11.7784 9.18532C11.7852 9.20184 11.7994 9.24609 11.7994 9.33105H13.7994ZM11.4297 11.5688C12.0133 11.5688 12.6134 11.4093 13.0819 10.9981C13.5674 10.5719 13.7994 9.97286 13.7994 9.33105H11.7994C11.7994 9.41258 11.7854 9.45496 11.7787 9.47091C11.7728 9.48495 11.768 9.49022 11.7624 9.49507C11.7512 9.50498 11.6665 9.56885 11.4297 9.56885V11.5688ZM29.9556 16.3359H22.2994V18.3359H29.9556V16.3359ZM30.7818 15.6855C30.7818 15.9666 30.6933 16.0896 30.6191 16.1547C30.5279 16.2348 30.3291 16.3359 29.9556 16.3359V18.3359C30.6759 18.3359 31.3902 18.1392 31.9386 17.6578C32.504 17.1614 32.7818 16.4592 32.7818 15.6855H30.7818ZM29.9556 15.0352C30.3425 15.0352 30.538 15.1381 30.6236 15.2138C30.6926 15.2749 30.7818 15.3962 30.7818 15.6855H32.7818C32.7818 14.9202 32.5145 14.2163 31.9487 13.7158C31.3996 13.2301 30.682 13.0352 29.9556 13.0352V15.0352ZM25.0923 15.0352H29.9556V13.0352H25.0923V15.0352ZM24.0923 13.957V14.0352H26.0923V13.957H24.0923ZM29.974 5.98338L24.3002 13.3467L25.8844 14.5674L31.5583 7.20412L29.974 5.98338ZM30.3521 5.1582C30.3521 5.43638 30.2403 5.63449 29.9712 5.98708L31.5611 7.20042C31.8584 6.81082 32.3521 6.14956 32.3521 5.1582H30.3521ZM29.3013 4.24414C29.7404 4.24414 29.9884 4.36952 30.1176 4.48986C30.2386 4.60252 30.3521 4.79934 30.3521 5.1582H32.3521C32.3521 4.33543 32.0701 3.57521 31.4806 3.02625C30.8994 2.48497 30.122 2.24414 29.3013 2.24414V4.24414ZM21.938 4.24414H29.3013V2.24414H21.938V4.24414ZM21.1119 4.89453C21.1119 4.60522 21.201 4.48389 21.27 4.42282C21.3557 4.34707 21.5511 4.24414 21.938 4.24414V2.24414C21.2117 2.24414 20.494 2.43906 19.9449 2.92483C19.3791 3.42529 19.1119 4.12915 19.1119 4.89453H21.1119ZM21.938 5.54492C21.5646 5.54492 21.3657 5.44382 21.2745 5.36372C21.2003 5.29859 21.1119 5.17558 21.1119 4.89453H19.1119C19.1119 5.66817 19.3896 6.37035 19.9551 6.86674C20.5035 7.34817 21.2177 7.54492 21.938 7.54492V5.54492ZM26.5279 5.54492H21.938V7.54492H26.5279V5.54492ZM27.5279 6.62305V6.54492H25.5279V6.62305H27.5279ZM21.5861 14.6377L27.3185 7.23532L25.7372 6.01077L20.0048 13.4131L21.5861 14.6377ZM21.2486 15.5195C21.2486 15.2187 21.3185 14.9876 21.5898 14.6328L20.0011 13.4179C19.5107 14.0593 19.2486 14.7071 19.2486 15.5195H21.2486ZM22.2994 16.3359C21.8663 16.3359 21.6075 16.2128 21.4712 16.0923C21.3473 15.9828 21.2486 15.8111 21.2486 15.5195H19.2486C19.2486 16.3314 19.5551 17.068 20.1466 17.5908C20.7256 18.1026 21.4922 18.3359 22.2994 18.3359V16.3359ZM14.8782 37.822H3.39384V39.822H14.8782V37.822ZM16.6175 36.3464C16.6175 36.8911 16.4375 37.2205 16.2034 37.426C15.9522 37.6465 15.5251 37.822 14.8782 37.822V39.822C15.872 39.822 16.8145 39.5508 17.5228 38.929C18.2482 38.2922 18.6175 37.3837 18.6175 36.3464H16.6175ZM14.8782 34.8708C15.5435 34.8708 15.9672 35.0482 16.2115 35.2644C16.4392 35.4658 16.6175 35.7935 16.6175 36.3464H18.6175C18.6175 35.3174 18.2611 34.4072 17.5366 33.7664C16.8288 33.1402 15.8829 32.8708 14.8782 32.8708V34.8708ZM7.5833 34.8708H14.8782V32.8708H7.5833V34.8708ZM6.5833 33.7537V33.8708H8.5833V33.7537H6.5833ZM15.3019 22.0984L6.79118 33.1433L8.37541 34.364L16.8862 23.3191L15.3019 22.0984ZM15.9729 20.5554C15.9729 21.151 15.7098 21.5639 15.2991 22.1021L16.889 23.3154C17.3279 22.7403 17.9729 21.8642 17.9729 20.5554H15.9729ZM13.8968 18.6843C14.6508 18.6843 15.1551 18.9013 15.462 19.187C15.7605 19.4651 15.9729 19.9011 15.9729 20.5554H17.9729C17.9729 19.4372 17.5921 18.4378 16.825 17.7234C16.0662 17.0167 15.0324 16.6843 13.8968 16.6843V18.6843ZM2.85185 18.6843H13.8968V16.6843H2.85185V18.6843ZM1.11259 20.1599C1.11259 19.6069 1.29086 19.2793 1.51858 19.0779C1.7629 18.8617 2.18662 18.6843 2.85185 18.6843V16.6843C1.84716 16.6843 0.901254 16.9537 0.193429 17.5799C-0.531001 18.2207 -0.887405 19.1309 -0.887405 20.1599H1.11259ZM2.85185 21.6355C2.20496 21.6355 1.77786 21.4599 1.52671 21.2395C1.2926 21.0339 1.11259 20.7046 1.11259 20.1599H-0.887405C-0.887405 21.1972 -0.518099 22.1057 0.207267 22.7425C0.91559 23.3643 1.85812 23.6355 2.85185 23.6355V21.6355ZM9.73662 21.6355H2.85185V23.6355H9.73662V21.6355ZM10.7366 22.7527V22.6355H8.73662V22.7527H10.7366ZM1.92863 34.4685L10.5273 23.365L8.94598 22.1404L0.347343 33.2439L1.92863 34.4685ZM1.31767 36.0974C1.31767 35.5182 1.47061 35.0675 1.93234 34.4636L0.343627 33.2487C-0.337217 34.1391 -0.682327 35.0066 -0.682327 36.0974H1.31767ZM3.39384 37.822C2.65075 37.822 2.13559 37.6098 1.82042 37.3312C1.51771 37.0636 1.31767 36.6649 1.31767 36.0974H-0.682327C-0.682327 37.1852 -0.274454 38.1488 0.495829 38.8297C1.25366 39.4996 2.27658 39.822 3.39384 39.822V37.822Z" fill="#E4F0F6" mask="url(#path-1-inside-1)"/>
</svg>
