<svg width="10" height="13" viewBox="0 0 10 13" fill="none" xmlns="http://www.w3.org/2000/svg">
<path d="M8.41948 0.185757C8.86917 -0.134858 9.49363 -0.0302185 9.81424 0.419475C10.1349 0.869169 10.0302 1.49363 9.58052 1.81424L8.41948 0.185757ZM1 6.7037L0.447975 7.53753C0.173338 7.35571 0.00584434 7.05031 0.00014943 6.72099C-0.00554548 6.39167 0.151289 6.08067 0.419475 5.88946L1 6.7037ZM9.55202 11.1662C10.0125 11.471 10.1387 12.0915 9.83383 12.552C9.52895 13.0125 8.90849 13.1387 8.44798 12.8338L9.55202 11.1662ZM9.58052 1.81424C8.01843 2.92796 6.01843 4.35389 4.40895 5.50138C3.60421 6.07513 2.89711 6.57927 2.39118 6.93998C2.13822 7.12033 1.93556 7.26482 1.79613 7.36422C1.72643 7.41392 1.67251 7.45237 1.63605 7.47836C1.61781 7.49136 1.60392 7.50126 1.59461 7.50791C1.58997 7.51121 1.58641 7.51375 1.58407 7.51542C1.58286 7.51628 1.58204 7.51686 1.58141 7.51731C1.58127 7.51742 1.58114 7.51751 1.58103 7.51759C1.58091 7.51767 1.58082 7.51773 1.58075 7.51779C1.58067 7.51784 1.58062 7.51788 1.58058 7.51791C1.58054 7.51793 1.58052 7.51795 1 6.7037C0.419475 5.88946 0.419494 5.88945 0.419531 5.88942C0.419568 5.88939 0.419624 5.88936 0.419698 5.8893C0.419936 5.88913 0.41998 5.8891 0.420365 5.88883C0.420848 5.88848 0.421952 5.8877 0.423021 5.88693C0.425379 5.88525 0.428894 5.88275 0.433557 5.87942C0.44291 5.87275 0.456727 5.8629 0.474995 5.84988C0.511472 5.82387 0.565369 5.78544 0.635084 5.73574C0.774498 5.63634 0.977185 5.49183 1.23014 5.31149C1.73606 4.95079 2.44317 4.44664 3.2479 3.8729C4.85738 2.7254 6.85738 1.29947 8.41948 0.185757L9.58052 1.81424ZM1.55202 5.86988L9.55202 11.1662L8.44798 12.8338L0.447975 7.53753L1.55202 5.86988Z" fill="white"/>
</svg>
