<svg width="375" height="667" viewBox="0 0 375 667" fill="none" xmlns="http://www.w3.org/2000/svg">
<rect width="375" height="667" fill="url(#paint0_linear)"/>
<rect width="375" height="507" fill="url(#paint1_linear)"/>
<path d="M128.537 421.463C111.732 426.566 89.5246 441.495 80.5218 448.322L11 582.95L513.158 590C518.326 558.441 520.06 492.235 485.649 479.88C442.635 464.437 450.138 457.387 424.63 431.871C399.122 406.356 307.413 353.211 289 356.5C273.047 359.349 266.08 366.404 230.569 374.797C195.058 383.19 179.053 402.327 164.548 409.377C150.044 416.427 149.543 415.085 128.537 421.463Z" fill="#154A68"/>
<path d="M-51.9292 402.248C-75.0182 410.154 -137.597 421.617 -166 426.361V663.934L435.964 692V629.938C436.422 595.284 432.666 521.627 413.975 504.234C390.611 482.493 378.242 445.335 366.56 445.335C354.878 445.335 333.575 414.106 314.334 402.248C295.094 390.389 264.171 390.784 211.946 374.972C159.72 359.16 131.931 354.361 117.5 359.5C105.955 363.611 67.181 362.85 42.2137 366.671C20.4532 375.236 -28.8401 394.342 -51.9292 402.248Z" fill="#0C3953"/>
<path d="M54.8805 542.26C34.8806 547.37 8.45208 562.317 -2.26217 569.151L-85 703.941L512.617 711C518.768 679.403 520.831 613.118 479.879 600.748C428.689 585.286 437.617 578.227 407.26 552.681C376.903 527.134 306.543 471 243.57 471C224.284 471 218.57 487.134 176.309 495.538C134.047 503.941 114.999 523.101 97.7375 530.16C80.4757 537.218 79.8804 535.874 54.8805 542.26Z" fill="#022234"/>
<defs>
<linearGradient id="paint0_linear" x1="187.5" y1="0" x2="187.5" y2="667" gradientUnits="userSpaceOnUse">
<stop offset="0.140625" stop-color="#E4F0F6"/>
<stop offset="0.510417" stop-color="#0079BF" stop-opacity="0.96"/>
</linearGradient>
<linearGradient id="paint1_linear" x1="187.5" y1="0" x2="187.5" y2="507" gradientUnits="userSpaceOnUse">
<stop stop-color="#0079BF" stop-opacity="0.87"/>
<stop offset="1" stop-color="#E4F0F6" stop-opacity="0"/>
</linearGradient>
</defs>
</svg>
