<svg width="221" height="213" viewBox="0 0 221 213" fill="none" xmlns="http://www.w3.org/2000/svg">
<path d="M52.5284 142.596C44.8457 142.112 40.5685 133.492 44.8294 127.081L101.667 41.5614C105.928 35.1502 115.531 35.7559 118.953 42.6516L164.597 134.634C168.018 141.53 162.692 149.544 155.009 149.059L52.5284 142.596Z" fill="#5BA4CF"/>
<rect x="28.307" y="117.16" width="24.8918" height="48.8617" rx="10" transform="rotate(-26.3914 28.307 117.16)" fill="#5BA4CF"/>
<path d="M86.6491 128.669C87.8956 128.05 88.2528 126.924 87.6082 125.625L85.0558 120.482L88.4281 118.808L94.4097 122.954C95.6256 123.789 96.2279 123.915 97.1727 123.447C98.3274 122.874 98.7896 121.696 98.2687 120.646C98.0408 120.187 97.7796 119.891 97.1716 119.49L92.0982 116.12C93.7418 114.193 93.9069 111.593 92.7349 109.231C90.8792 105.491 87.2466 104.432 82.8902 106.593L77.1166 109.458C75.87 110.077 75.5129 111.203 76.1575 112.502L83.6454 127.592C84.29 128.891 85.4156 129.281 86.6491 128.669ZM83.6298 117.608L80.6346 111.572L84.0069 109.899C85.9752 108.922 87.7946 109.491 88.7062 111.328C89.6373 113.204 89.036 114.925 87.0415 115.915L83.6298 117.608ZM103.728 119.85L112.73 115.384C113.819 114.843 114.221 113.875 113.713 112.851C113.205 111.828 112.178 111.569 111.102 112.103L104.082 115.587L101.712 110.81L108.391 107.496C109.388 107.001 109.757 106.098 109.289 105.154C108.82 104.209 107.864 103.964 106.88 104.452L100.201 107.766L97.9415 103.213L104.962 99.7294C106.038 99.1955 106.453 98.2206 105.945 97.1971C105.438 96.1736 104.423 95.9085 103.334 96.449L94.3323 100.916C93.0858 101.534 92.7286 102.66 93.3732 103.959L100.718 118.76C101.369 120.072 102.482 120.469 103.728 119.85ZM119.047 112.56C120.162 112.006 120.466 111.005 119.887 109.837L114.339 98.6572L114.444 98.6051L124.82 107.749C125.551 108.4 126.291 108.507 127.131 108.09C127.958 107.68 128.3 107.052 128.225 106.043L127.225 92.2632L127.33 92.2111L132.878 103.391C133.457 104.559 134.439 104.922 135.554 104.368C136.669 103.815 136.987 102.807 136.407 101.639L128.945 86.6018C128.145 84.9878 126.731 84.5118 125.13 85.3062C123.739 85.9964 123.258 86.9711 123.403 88.7141L124.494 102.678L124.389 102.73L113.916 93.4217C112.61 92.2386 111.562 92.0388 110.184 92.7225C108.57 93.5234 108.101 94.9501 108.895 96.551L116.357 111.588C116.937 112.756 117.931 113.113 119.047 112.56Z" fill="#E4F0F6"/>
<path d="M139 57L164 22" stroke="#BCD9EA" stroke-width="8" stroke-linecap="round" stroke-linejoin="round"/>
<path d="M160 87L198 68" stroke="#BCD9EA" stroke-width="8" stroke-linecap="round" stroke-linejoin="round"/>
<path d="M179 126L216 122" stroke="#BCD9EA" stroke-width="8" stroke-linecap="round" stroke-linejoin="round"/>
</svg>
