<svg width="26" height="36" viewBox="0 0 26 36" fill="none" xmlns="http://www.w3.org/2000/svg">
<mask id="path-1-inside-1" fill="white">
<path fill-rule="evenodd" clip-rule="evenodd" d="M0 5.23804C0 2.47661 2.23858 0.238037 5 0.238037H21C23.7614 0.238037 26 2.47661 26 5.23804V30.238C26 32.9995 23.7614 35.238 21 35.238H5C2.23858 35.238 0 32.9995 0 30.238V5.23804ZM20 8.23804C20 9.34261 19.1046 10.238 18 10.238C16.8954 10.238 16 9.34261 16 8.23804C16 7.13347 16.8954 6.23804 18 6.23804C19.1046 6.23804 20 7.13347 20 8.23804ZM7.48047 19.1912V20.7927C7.48047 21.0974 7.31641 21.2771 7.03906 21.2771C6.75781 21.2771 6.59375 21.0974 6.59375 20.7927V16.6169C6.59375 16.1208 6.8125 15.906 7.32031 15.906H8.65234C9.75 15.906 10.4336 16.5271 10.4336 17.5193C10.4336 18.2029 10.0742 18.7537 9.47656 18.988L10.3047 20.5427C10.3555 20.6326 10.3828 20.7537 10.3828 20.8513C10.3828 21.0896 10.1953 21.2576 9.94922 21.2576C9.71875 21.2576 9.59375 21.156 9.44531 20.863L8.59766 19.1912H7.48047ZM7.48047 16.6521V18.4919H8.51562C9.17578 18.4919 9.54297 18.1716 9.54297 17.5818C9.54297 16.9919 9.16797 16.6521 8.53516 16.6521H7.48047ZM12.1133 21.238C11.6523 21.238 11.4414 21.0427 11.4414 20.6052V16.5388C11.4414 16.1052 11.6523 15.906 12.1133 15.906H14.4297C14.6719 15.906 14.832 16.0544 14.832 16.281C14.832 16.5076 14.6719 16.6521 14.4297 16.6521H12.3242V18.1716H14.3086C14.5391 18.1716 14.6914 18.3123 14.6914 18.531C14.6914 18.7498 14.5391 18.8865 14.3086 18.8865H12.3242V20.4919H14.4219C14.6719 20.4919 14.832 20.6365 14.832 20.8669C14.832 21.0935 14.6719 21.238 14.4219 21.238H12.1133ZM17.7539 21.3513C16.375 21.3513 15.5938 20.4724 15.5938 18.9451V18.1833C15.5938 16.6873 16.3828 15.8005 17.7539 15.8005C18.418 15.8005 18.9609 16.0037 19.3398 16.3865C19.6016 16.6482 19.7656 16.9802 19.7656 17.2146C19.7656 17.4451 19.6133 17.5896 19.3906 17.5896C19.2188 17.5896 19.1055 17.5232 18.9648 17.3162C18.6562 16.8083 18.2969 16.574 17.7969 16.574C16.9531 16.574 16.4766 17.1677 16.4766 18.2107V18.9216C16.4766 19.988 16.9492 20.5779 17.7969 20.5779C18.3047 20.5779 18.6914 20.3474 18.9805 19.8513C19.1211 19.6482 19.2227 19.574 19.3867 19.574C19.6211 19.574 19.7656 19.7224 19.7656 19.949C19.7656 20.2107 19.582 20.5583 19.2891 20.8201C18.918 21.1638 18.3984 21.3513 17.7539 21.3513Z"/>
</mask>
<path fill-rule="evenodd" clip-rule="evenodd" d="M0 5.23804C0 2.47661 2.23858 0.238037 5 0.238037H21C23.7614 0.238037 26 2.47661 26 5.23804V30.238C26 32.9995 23.7614 35.238 21 35.238H5C2.23858 35.238 0 32.9995 0 30.238V5.23804ZM20 8.23804C20 9.34261 19.1046 10.238 18 10.238C16.8954 10.238 16 9.34261 16 8.23804C16 7.13347 16.8954 6.23804 18 6.23804C19.1046 6.23804 20 7.13347 20 8.23804ZM7.48047 19.1912V20.7927C7.48047 21.0974 7.31641 21.2771 7.03906 21.2771C6.75781 21.2771 6.59375 21.0974 6.59375 20.7927V16.6169C6.59375 16.1208 6.8125 15.906 7.32031 15.906H8.65234C9.75 15.906 10.4336 16.5271 10.4336 17.5193C10.4336 18.2029 10.0742 18.7537 9.47656 18.988L10.3047 20.5427C10.3555 20.6326 10.3828 20.7537 10.3828 20.8513C10.3828 21.0896 10.1953 21.2576 9.94922 21.2576C9.71875 21.2576 9.59375 21.156 9.44531 20.863L8.59766 19.1912H7.48047ZM7.48047 16.6521V18.4919H8.51562C9.17578 18.4919 9.54297 18.1716 9.54297 17.5818C9.54297 16.9919 9.16797 16.6521 8.53516 16.6521H7.48047ZM12.1133 21.238C11.6523 21.238 11.4414 21.0427 11.4414 20.6052V16.5388C11.4414 16.1052 11.6523 15.906 12.1133 15.906H14.4297C14.6719 15.906 14.832 16.0544 14.832 16.281C14.832 16.5076 14.6719 16.6521 14.4297 16.6521H12.3242V18.1716H14.3086C14.5391 18.1716 14.6914 18.3123 14.6914 18.531C14.6914 18.7498 14.5391 18.8865 14.3086 18.8865H12.3242V20.4919H14.4219C14.6719 20.4919 14.832 20.6365 14.832 20.8669C14.832 21.0935 14.6719 21.238 14.4219 21.238H12.1133ZM17.7539 21.3513C16.375 21.3513 15.5938 20.4724 15.5938 18.9451V18.1833C15.5938 16.6873 16.3828 15.8005 17.7539 15.8005C18.418 15.8005 18.9609 16.0037 19.3398 16.3865C19.6016 16.6482 19.7656 16.9802 19.7656 17.2146C19.7656 17.4451 19.6133 17.5896 19.3906 17.5896C19.2188 17.5896 19.1055 17.5232 18.9648 17.3162C18.6562 16.8083 18.2969 16.574 17.7969 16.574C16.9531 16.574 16.4766 17.1677 16.4766 18.2107V18.9216C16.4766 19.988 16.9492 20.5779 17.7969 20.5779C18.3047 20.5779 18.6914 20.3474 18.9805 19.8513C19.1211 19.6482 19.2227 19.574 19.3867 19.574C19.6211 19.574 19.7656 19.7224 19.7656 19.949C19.7656 20.2107 19.582 20.5583 19.2891 20.8201C18.918 21.1638 18.3984 21.3513 17.7539 21.3513Z" fill="#E4F0F6"/>
<path d="M7.48047 19.1912V17.8912H6.18047V19.1912H7.48047ZM9.47656 18.988L9.00195 17.7778L7.64287 18.3107L8.32918 19.5992L9.47656 18.988ZM10.3047 20.5427L9.15731 21.1539L9.16495 21.1682L9.17296 21.1824L10.3047 20.5427ZM9.44531 20.863L10.605 20.2755L10.6048 20.2752L9.44531 20.863ZM8.59766 19.1912L9.75714 18.6033L9.39609 17.8912H8.59766V19.1912ZM7.48047 18.4919H6.18047V19.7919H7.48047V18.4919ZM7.48047 16.6521V15.3521H6.18047V16.6521H7.48047ZM12.3242 16.6521V15.3521H11.0242V16.6521H12.3242ZM12.3242 18.1716H11.0242V19.4716H12.3242V18.1716ZM12.3242 18.8865V17.5865H11.0242V18.8865H12.3242ZM12.3242 20.4919H11.0242V21.7919H12.3242V20.4919ZM19.3398 16.3865L18.4159 17.301L18.4206 17.3057L19.3398 16.3865ZM18.9648 17.3162L17.8539 17.9913L17.871 18.0194L17.8895 18.0466L18.9648 17.3162ZM18.9805 19.8513L17.9116 19.1113L17.8828 19.153L17.8572 19.1968L18.9805 19.8513ZM19.2891 20.8201L18.423 19.8506L18.4142 19.8584L18.4056 19.8664L19.2891 20.8201ZM5 -1.06196C1.52061 -1.06196 -1.3 1.75864 -1.3 5.23804H1.3C1.3 3.19458 2.95655 1.53804 5 1.53804V-1.06196ZM21 -1.06196H5V1.53804H21V-1.06196ZM27.3 5.23804C27.3 1.75864 24.4794 -1.06196 21 -1.06196V1.53804C23.0435 1.53804 24.7 3.19458 24.7 5.23804H27.3ZM27.3 30.238V5.23804H24.7V30.238H27.3ZM21 36.538C24.4794 36.538 27.3 33.7174 27.3 30.238H24.7C24.7 32.2815 23.0435 33.938 21 33.938V36.538ZM5 36.538H21V33.938H5V36.538ZM-1.3 30.238C-1.3 33.7174 1.52061 36.538 5 36.538V33.938C2.95655 33.938 1.3 32.2815 1.3 30.238H-1.3ZM-1.3 5.23804V30.238H1.3V5.23804H-1.3ZM18 11.538C19.8225 11.538 21.3 10.0606 21.3 8.23804H18.7C18.7 8.62464 18.3866 8.93804 18 8.93804V11.538ZM14.7 8.23804C14.7 10.0606 16.1775 11.538 18 11.538V8.93804C17.6134 8.93804 17.3 8.62464 17.3 8.23804H14.7ZM18 4.93804C16.1775 4.93804 14.7 6.4155 14.7 8.23804H17.3C17.3 7.85144 17.6134 7.53804 18 7.53804V4.93804ZM21.3 8.23804C21.3 6.4155 19.8225 4.93804 18 4.93804V7.53804C18.3866 7.53804 18.7 7.85144 18.7 8.23804H21.3ZM8.78047 20.7927V19.1912H6.18047V20.7927H8.78047ZM7.03906 22.5771C7.46913 22.5771 7.95648 22.4286 8.32441 22.025C8.67769 21.6376 8.78047 21.1689 8.78047 20.7927H6.18047C6.18047 20.7213 6.20122 20.4947 6.40313 20.2733C6.61969 20.0358 6.88634 19.9771 7.03906 19.9771V22.5771ZM5.29375 20.7927C5.29375 21.1688 5.39659 21.6396 5.75311 22.0281C6.12367 22.4319 6.61223 22.5771 7.03906 22.5771V19.9771C7.18465 19.9771 7.45055 20.0324 7.66877 20.2702C7.87294 20.4927 7.89375 20.7213 7.89375 20.7927H5.29375ZM5.29375 16.6169V20.7927H7.89375V16.6169H5.29375ZM7.32031 14.606C6.91968 14.606 6.32805 14.6853 5.85701 15.1467C5.37976 15.614 5.29375 16.21 5.29375 16.6169H7.89375C7.89375 16.5278 7.91712 16.7683 7.6762 17.0042C7.44148 17.2341 7.21313 17.206 7.32031 17.206V14.606ZM8.65234 14.606H7.32031V17.206H8.65234V14.606ZM11.7336 17.5193C11.7336 16.7099 11.445 15.937 10.8277 15.3774C10.225 14.8311 9.44028 14.606 8.65234 14.606V17.206C8.96207 17.206 9.06799 17.2915 9.08148 17.3037C9.09001 17.3115 9.09829 17.3211 9.10714 17.3426C9.1169 17.3664 9.13359 17.421 9.13359 17.5193H11.7336ZM9.95118 20.1983C11.0868 19.7529 11.7336 18.6932 11.7336 17.5193H9.13359C9.13359 17.6311 9.10545 17.6887 9.09014 17.7122C9.07639 17.7333 9.05413 17.7573 9.00195 17.7778L9.95118 20.1983ZM11.4521 19.9316L10.6239 18.3769L8.32918 19.5992L9.15731 21.1539L11.4521 19.9316ZM11.6828 20.8513C11.6828 20.5601 11.6116 20.213 11.4364 19.9031L9.17296 21.1824C9.12837 21.1035 9.10923 21.0405 9.10027 21.004C9.09099 20.9662 9.08281 20.9166 9.08281 20.8513H11.6828ZM9.94922 22.5576C10.8153 22.5576 11.6828 21.9017 11.6828 20.8513H9.08281C9.08281 20.6118 9.18445 20.3661 9.37579 20.1892C9.55979 20.0191 9.77549 19.9576 9.94922 19.9576V22.5576ZM8.28567 21.4506C8.38423 21.6451 8.55626 21.9502 8.86138 22.1908C9.22266 22.4758 9.61788 22.5576 9.94922 22.5576V19.9576C9.98593 19.9576 10.0673 19.9615 10.1717 19.9932C10.2827 20.0269 10.3854 20.0815 10.4716 20.1495C10.6195 20.2662 10.6548 20.3739 10.605 20.2755L8.28567 21.4506ZM7.43817 19.779L8.28583 21.4509L10.6048 20.2752L9.75714 18.6033L7.43817 19.779ZM7.48047 20.4912H8.59766V17.8912H7.48047V20.4912ZM8.78047 18.4919V16.6521H6.18047V18.4919H8.78047ZM8.51562 17.1919H7.48047V19.7919H8.51562V17.1919ZM8.24297 17.5818C8.24297 17.5957 8.24075 17.5595 8.2666 17.4942C8.29451 17.4237 8.34461 17.3469 8.41675 17.2833C8.55938 17.1574 8.65395 17.1919 8.51562 17.1919V19.7919C9.03746 19.7919 9.6457 19.6663 10.137 19.2328C10.6543 18.7764 10.843 18.156 10.843 17.5818H8.24297ZM8.53516 17.9521C8.62873 17.9521 8.53043 17.9757 8.39719 17.8534C8.33253 17.794 8.28869 17.7247 8.2643 17.6625C8.24136 17.604 8.24297 17.5714 8.24297 17.5818H10.843C10.843 17.0023 10.65 16.3921 10.1555 15.9381C9.6766 15.4984 9.07439 15.3521 8.53516 15.3521V17.9521ZM7.48047 17.9521H8.53516V15.3521H7.48047V17.9521ZM10.1414 20.6052C10.1414 21.012 10.2397 21.5879 10.7151 22.0338C11.1724 22.4628 11.734 22.538 12.1133 22.538V19.938C12.0317 19.938 12.2573 19.9156 12.4939 20.1376C12.7486 20.3764 12.7414 20.6359 12.7414 20.6052H10.1414ZM10.1414 16.5388V20.6052H12.7414V16.5388H10.1414ZM12.1133 14.606C11.7281 14.606 11.168 14.6848 10.7129 15.1138C10.2412 15.5583 10.1414 16.1308 10.1414 16.5388H12.7414C12.7414 16.5132 12.747 16.7694 12.4961 17.0059C12.2617 17.2268 12.0375 17.206 12.1133 17.206V14.606ZM14.4297 14.606H12.1133V17.206H14.4297V14.606ZM16.132 16.281C16.132 15.8474 15.9702 15.3946 15.6073 15.0569C15.2534 14.7275 14.8154 14.606 14.4297 14.606V17.206C14.2861 17.206 14.0494 17.1587 13.8361 16.9602C13.6137 16.7533 13.532 16.4881 13.532 16.281H16.132ZM14.4297 17.9521C14.8063 17.9521 15.2432 17.837 15.6001 17.5098C15.9689 17.1718 16.132 16.7161 16.132 16.281H13.532C13.532 16.0724 13.6151 15.8023 13.8432 15.5932C14.0596 15.3949 14.2953 15.3521 14.4297 15.3521V17.9521ZM12.3242 17.9521H14.4297V15.3521H12.3242V17.9521ZM13.6242 18.1716V16.6521H11.0242V18.1716H13.6242ZM14.3086 16.8716H12.3242V19.4716H14.3086V16.8716ZM15.9914 18.531C15.9914 18.1065 15.8351 17.6568 15.4739 17.3194C15.1218 16.9904 14.6871 16.8716 14.3086 16.8716V19.4716C14.1606 19.4716 13.9172 19.4232 13.6989 19.2192C13.4715 19.0067 13.3914 18.7367 13.3914 18.531H15.9914ZM14.3086 20.1865C14.6774 20.1865 15.1112 20.0744 15.4664 19.7476C15.8338 19.4098 15.9914 18.957 15.9914 18.531H13.3914C13.3914 18.3238 13.4729 18.0487 13.7064 17.8339C13.9279 17.6302 14.1703 17.5865 14.3086 17.5865V20.1865ZM12.3242 20.1865H14.3086V17.5865H12.3242V20.1865ZM13.6242 20.4919V18.8865H11.0242V20.4919H13.6242ZM14.4219 19.1919H12.3242V21.7919H14.4219V19.1919ZM16.132 20.8669C16.132 20.4355 15.9725 19.9748 15.5962 19.632C15.2333 19.3015 14.7925 19.1919 14.4219 19.1919V21.7919C14.3012 21.7919 14.0655 21.7547 13.8452 21.554C13.6115 21.3411 13.532 21.0679 13.532 20.8669H16.132ZM14.4219 22.538C14.7925 22.538 15.231 22.4286 15.5925 22.1018C15.968 21.7623 16.132 21.3029 16.132 20.8669H13.532C13.532 20.6576 13.6159 20.3837 13.8489 20.1731C14.0678 19.9752 14.3013 19.938 14.4219 19.938V22.538ZM12.1133 22.538H14.4219V19.938H12.1133V22.538ZM14.2938 18.9451C14.2938 19.9165 14.5425 20.8669 15.1882 21.5881C15.8528 22.3304 16.7776 22.6513 17.7539 22.6513V20.0513C17.3513 20.0513 17.196 19.9328 17.1253 19.8538C17.0356 19.7537 16.8937 19.501 16.8937 18.9451H14.2938ZM14.2938 18.1833V18.9451H16.8937V18.1833H14.2938ZM17.7539 14.5005C16.7767 14.5005 15.8564 14.8262 15.1944 15.5602C14.5492 16.2754 14.2938 17.2182 14.2938 18.1833H16.8937C16.8937 17.6524 17.0328 17.4038 17.125 17.3016C17.2002 17.2182 17.36 17.1005 17.7539 17.1005V14.5005ZM20.2638 15.472C19.59 14.7913 18.6857 14.5005 17.7539 14.5005V17.1005C18.1502 17.1005 18.3318 17.2161 18.4159 17.301L20.2638 15.472ZM21.0656 17.2146C21.0656 16.8229 20.9384 16.4747 20.8097 16.2216C20.6724 15.9516 20.4842 15.6924 20.2591 15.4672L18.4206 17.3057C18.4373 17.3224 18.4529 17.3408 18.4662 17.3591C18.4797 17.3776 18.488 17.3921 18.4921 17.4C18.4965 17.4087 18.4923 17.4027 18.4859 17.3801C18.4825 17.3682 18.4777 17.349 18.4736 17.3229C18.4696 17.297 18.4656 17.2604 18.4656 17.2146H21.0656ZM19.3906 18.8896C19.7868 18.8896 20.2273 18.7561 20.574 18.4146C20.9237 18.0701 21.0656 17.6243 21.0656 17.2146H18.4656C18.4656 17.0354 18.5314 16.7771 18.7493 16.5625C18.9641 16.3508 19.2171 16.2896 19.3906 16.2896V18.8896ZM17.8895 18.0466C18.0046 18.2161 18.1879 18.4507 18.4727 18.6302C18.7922 18.8316 19.1179 18.8896 19.3906 18.8896V16.2896C19.4312 16.2896 19.5034 16.2935 19.5935 16.3165C19.6876 16.3406 19.7782 16.3797 19.8593 16.4308C20.0093 16.5254 20.0657 16.6233 20.0402 16.5857L17.8895 18.0466ZM17.7969 17.874C17.8195 17.874 17.8186 17.8765 17.8024 17.8721C17.7848 17.8672 17.7664 17.8589 17.7523 17.8499C17.7262 17.8332 17.7666 17.8477 17.8539 17.9913L20.0758 16.641C19.8545 16.2768 19.5609 15.9203 19.1529 15.6594C18.7289 15.3883 18.2649 15.274 17.7969 15.274V17.874ZM17.7766 18.2107C17.7766 18.0462 17.7956 17.9369 17.8141 17.8724C17.8321 17.8095 17.8461 17.8002 17.8327 17.8168C17.8161 17.8373 17.7881 17.8598 17.7588 17.8727C17.7334 17.8839 17.7388 17.874 17.7969 17.874V15.274C17.0438 15.274 16.3159 15.5552 15.808 16.1857C15.3334 16.7747 15.1766 17.5132 15.1766 18.2107H17.7766ZM17.7766 18.9216V18.2107H15.1766V18.9216H17.7766ZM17.7969 19.2779C17.7358 19.2779 17.7301 19.2675 17.7566 19.2792C17.7876 19.2928 17.8173 19.3167 17.8348 19.3386C17.8489 19.3562 17.8342 19.3464 17.8154 19.2793C17.7961 19.2106 17.7766 19.0952 17.7766 18.9216H15.1766C15.1766 19.6225 15.3288 20.3668 15.8029 20.9607C16.313 21.5997 17.0453 21.8779 17.7969 21.8779V19.2779ZM17.8572 19.1968C17.8261 19.2502 17.8032 19.2779 17.7923 19.2896C17.7824 19.3003 17.7827 19.2975 17.7942 19.2906C17.8062 19.2832 17.8185 19.2785 17.8263 19.2765C17.8328 19.2748 17.8251 19.2779 17.7969 19.2779V21.8779C18.2566 21.8779 18.7208 21.7706 19.1472 21.5107C19.5672 21.2548 19.8762 20.8962 20.1037 20.5058L17.8572 19.1968ZM19.3867 18.274C19.0765 18.274 18.7438 18.3538 18.4348 18.5676C18.176 18.7468 18.0083 18.9716 17.9116 19.1113L20.0493 20.5913C20.0932 20.5279 20.0467 20.614 19.9148 20.7053C19.8382 20.7583 19.7445 20.8057 19.6373 20.8369C19.5331 20.8672 19.4448 20.874 19.3867 20.874V18.274ZM21.0656 19.949C21.0656 19.5554 20.9346 19.1086 20.5833 18.7573C20.2313 18.4052 19.783 18.274 19.3867 18.274V20.874C19.2248 20.874 18.966 20.8169 18.7448 20.5958C18.5244 20.3753 18.4656 20.116 18.4656 19.949H21.0656ZM20.1551 21.7896C20.6082 21.3848 21.0656 20.7122 21.0656 19.949H18.4656C18.4656 19.8659 18.4795 19.8109 18.486 19.7891C18.493 19.7656 18.4979 19.7584 18.4941 19.7654C18.4907 19.7716 18.4829 19.7846 18.4694 19.8014C18.4562 19.8181 18.4403 19.8351 18.423 19.8506L20.1551 21.7896ZM17.7539 22.6513C18.6538 22.6513 19.5128 22.3848 20.1725 21.7738L18.4056 19.8664C18.3231 19.9428 18.1431 20.0513 17.7539 20.0513V22.6513Z" fill="#E4F0F6" mask="url(#path-1-inside-1)"/>
</svg>
