<svg width="33" height="28" viewBox="0 0 33 28" fill="none" xmlns="http://www.w3.org/2000/svg">
<mask id="path-1-inside-1" fill="white">
<path fill-rule="evenodd" clip-rule="evenodd" d="M17.4901 25.3092C17.4052 25.4531 17.31 25.5933 17.2041 25.7289C15.8774 27.4296 13.3985 27.765 11.6675 26.4782L1.74088 19.099C0.00980589 17.8121 -0.317954 15.3903 1.0088 13.6896C2.33556 11.9889 4.81442 11.6535 6.54549 12.9403L13.1332 17.8375L25.2936 2.08487C26.6463 0.332507 29.1886 -0.0246814 30.9718 1.28707C32.7551 2.59881 33.1041 5.08277 31.7513 6.83513L17.4901 25.3092Z"/>
</mask>
<path fill-rule="evenodd" clip-rule="evenodd" d="M17.4901 25.3092C17.4052 25.4531 17.31 25.5933 17.2041 25.7289C15.8774 27.4296 13.3985 27.765 11.6675 26.4782L1.74088 19.099C0.00980589 17.8121 -0.317954 15.3903 1.0088 13.6896C2.33556 11.9889 4.81442 11.6535 6.54549 12.9403L13.1332 17.8375L25.2936 2.08487C26.6463 0.332507 29.1886 -0.0246814 30.9718 1.28707C32.7551 2.59881 33.1041 5.08277 31.7513 6.83513L17.4901 25.3092Z" fill="#E4F0F6"/>
<path d="M17.4901 25.3092L16.4611 24.5148L16.4116 24.5789L16.3705 24.6485L17.4901 25.3092ZM17.2041 25.7289L18.2291 26.5285L18.2291 26.5285L17.2041 25.7289ZM11.6675 26.4782L10.8919 27.5215L11.6675 26.4782ZM1.74088 19.099L2.51645 18.0557H2.51645L1.74088 19.099ZM1.0088 13.6896L-0.0161835 12.89H-0.0161835L1.0088 13.6896ZM6.54549 12.9403L5.76991 13.9836L5.76991 13.9836L6.54549 12.9403ZM13.1332 17.8375L12.3576 18.8808L13.3822 19.6424L14.1623 18.6319L13.1332 17.8375ZM25.2936 2.08487L24.2645 1.29048V1.29048L25.2936 2.08487ZM31.7513 6.83513L30.7223 6.04074V6.04074L31.7513 6.83513ZM16.3705 24.6485C16.3142 24.7441 16.2505 24.8378 16.1792 24.9293L18.2291 26.5285C18.3694 26.3487 18.4963 26.1621 18.6097 25.9699L16.3705 24.6485ZM16.1792 24.9293C15.2868 26.0731 13.6074 26.3004 12.443 25.4349L10.8919 27.5215C13.1897 29.2297 16.468 28.786 18.2291 26.5285L16.1792 24.9293ZM12.443 25.4349L2.51645 18.0557L0.965304 20.1423L10.8919 27.5215L12.443 25.4349ZM2.51645 18.0557C1.37108 17.2042 1.15593 15.6145 2.03379 14.4892L-0.0161835 12.89C-1.79184 15.1661 -1.35147 18.42 0.965304 20.1423L2.51645 18.0557ZM2.03379 14.4892C2.92617 13.3453 4.60559 13.1181 5.76991 13.9836L7.32106 11.897C5.02324 10.1888 1.74495 10.6325 -0.0161835 12.89L2.03379 14.4892ZM5.76991 13.9836L12.3576 18.8808L13.9088 16.7942L7.32106 11.897L5.76991 13.9836ZM14.1623 18.6319L26.3226 2.87926L24.2645 1.29048L12.1042 17.0431L14.1623 18.6319ZM26.3226 2.87926C27.2438 1.68593 28.9872 1.44099 30.2015 2.33427L31.7421 0.239867C29.39 -1.49035 26.0488 -1.02091 24.2645 1.29048L26.3226 2.87926ZM30.2015 2.33427C31.3969 3.21359 31.6291 4.86605 30.7223 6.04074L32.7804 7.62952C34.5791 5.29948 34.1133 1.98404 31.7421 0.239867L30.2015 2.33427ZM30.7223 6.04074L16.4611 24.5148L18.5192 26.1036L32.7804 7.62952L30.7223 6.04074Z" fill="#E4F0F6" mask="url(#path-1-inside-1)"/>
</svg>
