<svg width="44" height="44" viewBox="0 0 44 44" fill="none" xmlns="http://www.w3.org/2000/svg">
<path fill-rule="evenodd" clip-rule="evenodd" d="M44 22C44 34.1503 34.1503 44 22 44C9.84974 44 0 34.1503 0 22C0 9.84974 9.84974 0 22 0C34.1503 0 44 9.84974 44 22ZM20 11C20 9.89543 20.8954 9 22 9C23.1046 9 24 9.89543 24 11V20H33C34.1046 20 35 20.8954 35 22C35 23.1046 34.1046 24 33 24H24V33C24 34.1046 23.1046 35 22 35C20.8954 35 20 34.1046 20 33V24H11C9.89543 24 9 23.1046 9 22C9 20.8954 9.89543 20 11 20H20V11Z" fill="#5BA4CF"/>
</svg>
