<svg width="10" height="13" viewBox="0 0 10 13" fill="none" xmlns="http://www.w3.org/2000/svg">
<path d="M1.58052 0.185757C1.13083 -0.134858 0.506372 -0.0302186 0.185757 0.419475C-0.134858 0.869169 -0.0302186 1.49363 0.419475 1.81424L1.58052 0.185757ZM9 6.7037L9.55202 7.53753C9.82666 7.35571 9.99416 7.05031 9.99985 6.72099C10.0055 6.39167 9.84871 6.08067 9.58052 5.88946L9 6.7037ZM0.447975 11.1662C-0.0125351 11.471 -0.138703 12.0915 0.166172 12.552C0.471047 13.0125 1.09151 13.1387 1.55202 12.8338L0.447975 11.1662ZM0.419475 1.81424C1.98157 2.92796 3.98157 4.35389 5.59105 5.50138C6.39579 6.07513 7.10289 6.57927 7.60882 6.93998C7.86178 7.12033 8.06444 7.26482 8.20387 7.36422C8.27357 7.41392 8.32749 7.45237 8.36396 7.47836C8.38219 7.49136 8.39608 7.50126 8.40539 7.50791C8.41003 7.51121 8.4136 7.51375 8.41593 7.51542C8.41714 7.51628 8.41796 7.51686 8.41859 7.51731C8.41873 7.51742 8.41886 7.51751 8.41897 7.51759C8.41909 7.51767 8.41918 7.51773 8.41925 7.51779C8.41933 7.51784 8.41938 7.51788 8.41942 7.51791C8.41946 7.51793 8.41948 7.51795 9 6.7037C9.58052 5.88946 9.58051 5.88945 9.58047 5.88942C9.58043 5.88939 9.58038 5.88936 9.5803 5.8893C9.58006 5.88913 9.58002 5.8891 9.57964 5.88883C9.57915 5.88848 9.57805 5.8877 9.57698 5.88693C9.57462 5.88525 9.57111 5.88275 9.56644 5.87942C9.55709 5.87275 9.54327 5.8629 9.525 5.84988C9.48853 5.82387 9.43463 5.78544 9.36492 5.73574C9.2255 5.63634 9.02281 5.49183 8.76986 5.31149C8.26394 4.95079 7.55683 4.44664 6.7521 3.8729C5.14262 2.7254 3.14262 1.29947 1.58052 0.185757L0.419475 1.81424ZM8.44798 5.86988L0.447975 11.1662L1.55202 12.8338L9.55202 7.53753L8.44798 5.86988Z" fill="white"/>
</svg>
