<svg width="44" height="44" viewBox="0 0 44 44" fill="none" xmlns="http://www.w3.org/2000/svg">
<path fill-rule="evenodd" clip-rule="evenodd" d="M22 44C34.1503 44 44 34.1503 44 22C44 9.84974 34.1503 0 22 0C9.84974 0 0 9.84974 0 22C0 34.1503 9.84974 44 22 44ZM23.7925 26.1816C23.707 27.2754 23.1943 27.9932 22.0835 27.9932C20.8872 27.9932 20.2891 27.1216 20.2891 25.9937V25.6006C20.2891 23.4131 21.3486 21.9604 23.5703 20.6274C25.6382 19.3799 26.373 18.3545 26.373 16.6797C26.373 14.6631 24.8179 13.2788 22.5449 13.2788C20.4771 13.2788 19.1099 14.3042 18.563 16.167C18.2212 17.2266 17.6914 17.6025 16.8369 17.6025C15.7773 17.6025 15.1792 16.9702 15.1792 15.9277C15.1792 15.1929 15.333 14.5947 15.6406 13.9282C16.6831 11.5698 19.2808 10.1343 22.6987 10.1343C27.1592 10.1343 30.2524 12.749 30.2524 16.5259C30.2524 19.1748 28.9194 20.9863 26.6636 22.3364C24.459 23.6353 23.8779 24.5068 23.7925 26.1816ZM24.3394 33.0518C24.3394 34.2993 23.3652 35.2563 22.0835 35.2563C20.8359 35.2563 19.8447 34.2993 19.8447 33.0518C19.8447 31.8042 20.8359 30.8472 22.0835 30.8472C23.3652 30.8472 24.3394 31.8042 24.3394 33.0518Z" fill="#5BA4CF"/>
</svg>
